<svg xmlns="http://www.w3.org/2000/svg" viewBox="0 0 383.57 392.55"><defs><style>.cls-1{opacity:0.1;}.cls-2{fill:#3f4443;}.cls-3{fill:#aaa;}.cls-4{fill:#9b9b9b;}.cls-5{fill:#c6c6c6;}.cls-6{fill:#272727;}.cls-7{opacity:0.3;}.cls-8{fill:#898989;}.cls-23,.cls-9{fill:#e83a3a;}.cls-10{fill:#e56565;}.cls-11{fill:#c62c2c;}.cls-12{fill:#ad2217;}.cls-13{fill:#931b1b;}.cls-14{fill:#4e4e50;}.cls-15{fill:#282828;}.cls-16{fill:#677677;}.cls-17{fill:#98d8d6;}.cls-18{fill:#bdf2ef;}.cls-19{fill:#cc7b1b;}.cls-20{fill:#666;}.cls-21{fill:#fff;}.cls-22{fill:#dbdbdb;}.cls-23{font-size:14.4px;font-family:SFShaiFontaiExtended;}.cls-24{letter-spacing:-0.03em;}.cls-25{fill:#ce996a;}.cls-26{fill:#bfbfbf;}.cls-27{fill:#969696;}.cls-28{fill:#7f5d46;}.cls-29{fill:#685141;}.cls-30{fill:#513a2a;}.cls-31{fill:#9b1e1e;}.cls-32{fill:#e2b07f;}.cls-33{fill:#cc9364;}.cls-34{fill:#6d6d6d;}.cls-35{fill:#99704f;}.cls-36{fill:#66452e;}.cls-37{fill:#cc7575;}.cls-38{fill:#e08989;}</style></defs><g id="Calque_2" data-name="Calque 2"><g id="objects"><ellipse class="cls-1" cx="191.46" cy="373.61" rx="191.46" ry="11.46"/><path class="cls-2" d="M328.85,373.77a42.29,42.29,0,1,1,42.29-42.29A42.34,42.34,0,0,1,328.85,373.77Zm0-66.68a24.4,24.4,0,1,0,24.39,24.39A24.42,24.42,0,0,0,328.85,307.09Z"/><circle class="cls-3" cx="322.67" cy="331.48" r="33.34" transform="translate(-66.7 81.71) rotate(-13.09)"/><circle class="cls-4" cx="322.86" cy="332.31" r="9.49" transform="translate(-108.12 502.39) rotate(-67.36)"/><path class="cls-5" d="M322.86,345.87a13.56,13.56,0,1,1,13.56-13.56A13.57,13.57,0,0,1,322.86,345.87Zm0-19a5.42,5.42,0,1,0,5.43,5.42A5.42,5.42,0,0,0,322.86,326.89Z"/><path class="cls-6" d="M322.67,373.77A42.29,42.29,0,1,1,365,331.48,42.34,42.34,0,0,1,322.67,373.77Zm0-66.68a24.4,24.4,0,1,0,24.4,24.39A24.42,24.42,0,0,0,322.67,307.09Z"/><g class="cls-7"><path d="M370.69,332.88h0c0-25.16-20.17-45.63-45-45.63s-45,20.47-45,45.63h89.91Z"/></g><path class="cls-8" d="M329.77,267.34s35.44,3,40.51,8.91l2.52,20.34Z"/><path class="cls-9" d="M328.77,266.42A54.81,54.81,0,0,0,274,321.22H383.57A54.81,54.81,0,0,0,328.77,266.42Z"/><path class="cls-10" d="M339.58,267.49A54.84,54.84,0,0,0,274,321.22h21.63A54.82,54.82,0,0,1,339.58,267.49Z"/><path class="cls-9" d="M35,299.06s22-61.41,68.43-62.19h92.79s-31.45,11-31.45,40.1,25.16,29.1,40.1,29.1h35.81s48.21,4.62,35.89-69.2l-16.48-58.21,15.19,6.87L315,260.78,313.21,267c-22.58,6.56-38.95,27.34-43.88,50.62-12.08,5.12-44.5,5.71-74.65,5.71H28.75S30.57,308.63,35,299.06Z"/><circle class="cls-2" cx="95.43" cy="331.48" r="42.29"/><circle class="cls-3" cx="89.25" cy="332.88" r="32.24" transform="translate(-75.09 29.95) rotate(-13.47)"/><path class="cls-6" d="M89.25,373.77a40.9,40.9,0,1,1,40.9-40.89A40.93,40.93,0,0,1,89.25,373.77Zm0-64.48a23.59,23.59,0,1,0,23.6,23.59A23.61,23.61,0,0,0,89.25,309.29Z"/><path class="cls-6" d="M212.77,221.14c0,7.38-4.39,13.37-9.81,13.37h-69c-5.41,0-9.8-6-9.8-13.37h0c0-7.38,4.13-15.85,9.54-15.85L202.85,215c9.92.92,9.92,6.13,9.92,6.13Z"/><path d="M194.27,225.65c-1.6,0-68.27-.54-68.27-.54a8.16,8.16,0,0,1-1.48-.15c1.2,5.52,5,9.55,9.4,9.55h69c5.39,0,9.76-5.91,9.81-13.21C207.14,224.9,201.15,225.65,194.27,225.65Z"/><circle class="cls-4" cx="89.25" cy="332.88" r="9.18"/><path class="cls-5" d="M89.25,346a13.11,13.11,0,1,1,13.11-13.11A13.11,13.11,0,0,1,89.25,346Zm0-18.35a5.24,5.24,0,1,0,5.24,5.24A5.25,5.25,0,0,0,89.25,327.64Z"/><g class="cls-7"><path d="M138.26,332.88h0c0-25.16-20.16-45.63-44.95-45.63s-44.95,20.47-44.95,45.63h89.9Z"/></g><path class="cls-11" d="M129.93,318.65s79.64,4.84,111-3.14,40-34,37-67.85c0,64.49-37.32,58.41-37.32,58.41H204.9c-14.94,0-40.1,0-40.1-29.1s31.45-40.1,31.45-40.1H103.46C57.06,237.65,35,299.06,35,299.06c-4.46,9.57-6.28,24.31-6.28,24.31H131.37Z"/><path class="cls-12" d="M76.46,244.73H57s-20.4,8.91-13.58,18.87c0,0,8.38,6.3,11,3.15Z"/><path class="cls-8" d="M63.14,244.73c-1.63,2.72-12.9,17.23-18.52,19.7,2.4,1.6,7.8,4.74,9.82,2.32l22-22Z"/><path class="cls-9" d="M133.66,251c-57.2-12.18-92.9,45.27-92.9,74.68H147.28C168.65,298.62,168.69,258.47,133.66,251Z"/><path class="cls-10" d="M134.68,259.65c-52-11.08-86.24,35.4-92,66H40.76c0-29.41,35.7-86.86,92.9-74.68,19.3,4.11,27.93,18.15,28.24,34.44C159.1,273,150.46,263,134.68,259.65Z"/><path class="cls-13" d="M196.25,234.51H144.39c-13.89,0-28.14-.94-42,.06-44.6,3.19-68.53,49.43-75.91,88.18-.57,3,4,4.24,4.55,1.25,6.86-36,29.52-83.07,72.28-84.77,30.88-1.23,62,0,93,0,3.05,0,3.05-4.72,0-4.72Z"/><path class="cls-14" d="M227.52,181.38c.58,2.09,3,3.38,5.47,2.88l29.09-6c2.44-.5,3.95-2.6,3.37-4.69h0c-.58-2.1-3-3.39-5.47-2.89l-29.09,6c-2.44.5-3.95,2.6-3.37,4.7Z"/><path class="cls-15" d="M227.52,181.38c.58,2.09,3,3.38,5.47,2.88l29.09-6c2.44-.5,3.95-2.6,3.37-4.69h0l-37.93,7.77Z"/><path class="cls-11" d="M290.86,171.12A15.47,15.47,0,0,1,278.24,189c-8.42,1.45-19.08-3.74-20.53-12.16S264.57,160,273,158.51A15.46,15.46,0,0,1,290.86,171.12Z"/><path class="cls-10" d="M273,164.31c-6.76,1.17-13.44,6.85-15.07,13.41-.07-.3-.16-.59-.21-.89-1.45-8.42,6.86-16.87,15.28-18.32a15.41,15.41,0,0,1,17.8,18.13A15.46,15.46,0,0,0,273,164.31Z"/><path class="cls-16" d="M273,158.51A15.46,15.46,0,1,1,278.24,189Z"/><path class="cls-14" d="M280.05,165.56a20.74,20.74,0,0,0,7.64-1.48A15.46,15.46,0,0,1,278.24,189l-4.08-23.69C276.06,165.49,278,165.56,280.05,165.56Z"/><path class="cls-17" d="M279.68,158.84a15.43,15.43,0,0,1,4.75,27.59Z"/><path class="cls-18" d="M280.94,166.17l-1.26-7.33a15.46,15.46,0,0,1,11.18,12.28,15.3,15.3,0,0,1-.18,6.08A15.44,15.44,0,0,0,280.94,166.17Z"/><path class="cls-19" d="M255.61,180.38a3,3,0,0,0,3.41,2.21h0a2.54,2.54,0,0,0,2.45-2.86L260,171.81a3.05,3.05,0,0,0-3.41-2.22h0a2.56,2.56,0,0,0-2.45,2.87Z"/><path class="cls-11" d="M118.42,269.49a1.15,1.15,0,0,0,1.15,1.16h10.29a1.16,1.16,0,0,0,1.16-1.16h0a1.16,1.16,0,0,0-1.16-1.16H119.57a1.15,1.15,0,0,0-1.15,1.16Z"/><path class="cls-11" d="M118.42,302.16a1.15,1.15,0,0,0,1.15,1.15h10.29a1.16,1.16,0,0,0,1.16-1.15h0a1.16,1.16,0,0,0-1.16-1.16H119.57a1.15,1.15,0,0,0-1.15,1.16Z"/><path class="cls-11" d="M108.9,274.89a1.16,1.16,0,0,0,1.16,1.16h27.77a1.16,1.16,0,0,0,1.16-1.16h0a1.16,1.16,0,0,0-1.16-1.16H110.06a1.16,1.16,0,0,0-1.16,1.16Z"/><path class="cls-11" d="M105.68,280.29a1.16,1.16,0,0,0,1.16,1.16h33.82a1.16,1.16,0,0,0,1.16-1.16h0a1.15,1.15,0,0,0-1.16-1.15H106.84a1.15,1.15,0,0,0-1.16,1.15Z"/><path class="cls-11" d="M104.53,286a1.15,1.15,0,0,0,1.15,1.16h35.95a1.16,1.16,0,0,0,1.16-1.16h0a1.16,1.16,0,0,0-1.16-1.16H105.68a1.15,1.15,0,0,0-1.15,1.16Z"/><path class="cls-11" d="M106.65,291.1a1.16,1.16,0,0,0,1.16,1.15h32.85a1.16,1.16,0,0,0,1.16-1.15h0a1.16,1.16,0,0,0-1.16-1.16H107.81a1.16,1.16,0,0,0-1.16,1.16Z"/><path class="cls-11" d="M110,296.5a1.15,1.15,0,0,0,1.16,1.15h26.68A1.15,1.15,0,0,0,139,296.5h0a1.16,1.16,0,0,0-1.16-1.16H111.15A1.16,1.16,0,0,0,110,296.5Z"/><polygon class="cls-20" points="32.11 230.7 73.81 244.73 91.7 234.13 32.11 230.7"/><path class="cls-8" d="M119.93,230.7A4.4,4.4,0,0,1,115.4,235H10.09a4.4,4.4,0,0,1-4.53-4.26h0a4.4,4.4,0,0,1,4.53-4.26H115.4a4.4,4.4,0,0,1,4.53,4.26Z"/><rect class="cls-21" x="10.09" y="150.56" width="106.37" height="75.89"/><polygon class="cls-22" points="106.34 216.68 106.34 150.56 116.46 150.56 116.46 226.44 10.09 226.44 10.09 216.68 106.34 216.68"/><path class="cls-9" d="M75.68,185.75H71.8v-7.59h.37a5,5,0,0,0,5-5H75a2.78,2.78,0,0,1-2,2.67l-1.46-4.68H67.33v-2.93h.37a5,5,0,0,0,5-5H70.49a2.8,2.8,0,0,1-2,2.68L67,161.26H51.81l-1.46,4.68a2.8,2.8,0,0,1-2-2.68H46.15a5,5,0,0,0,5,5h.36v2.93H47.35l-1.46,4.68a2.79,2.79,0,0,1-2-2.67H41.68a5,5,0,0,0,5,5H47v7.59H43.14v4.39H41.68v6.58H77.15v-6.58H75.68Zm-6.07,0H65.14v-7.59h4.47ZM63,178.16v7.59H55.88v-7.59Zm2.45-14.71.81,2.6H52.62l.81-2.6Zm-11.71,4.79H65.14v2.93H53.69Zm16.17,5.12.81,2.6H48.15l.81-2.6Zm-20.64,4.8h4.47v7.59H49.22ZM45.34,188H73.49v2.19H45.34ZM75,194.53H43.87v-2.2H75Z"/><text class="cls-23" transform="translate(18.71 211.98)">Chinese <tspan class="cls-24" x="50.9" y="0">F</tspan><tspan x="57.47" y="0">ood</tspan></text><path class="cls-25" d="M225.38,120.89s-9.34,30.63.93,33.09,26.08-12.64,39.89-39.57l2.92-11s-3.86,1.45-9.87,7.29S243,126.82,237.77,130.15l1.44-16Z"/><path class="cls-26" d="M169.77,165.56S164.22,244.44,180,284.38l78.35,58.09,2.94-11.1-60.91-58.8s-9.08-35.9-4.48-57.84l12.13-2.8s2.5,101.32,7.49,158.33h11.19s11.08-159.69,4.54-195.07S169.77,165.56,169.77,165.56Z"/><path class="cls-27" d="M210.42,282.24l9.28,7.7c-1.58-38.22-3-79.56-3-79.56l-8.62,1.55C208.23,218.91,209.31,253.86,210.42,282.24Z"/><path class="cls-27" d="M218.55,306.07c-.12,2.25,2.77,6.69,2.65,8.84l37.17,27.56,1.52-5.75Z"/><path class="cls-27" d="M220.84,307.77l-31.55-23.39c-15.79-39.94-10.24-118.82-10.24-118.82s15.87-7.44,31.57-8.83c-18-1.88-40.85,8.83-40.85,8.83S164.22,244.44,180,284.38l31.55,23.39c1.08,22.19,2.4,44.54,4,62.49h9.28C223.25,352.31,221.92,330,220.84,307.77Z"/><path class="cls-28" d="M215.54,370.26v8.36s21.48,11.91,37.25,13.93c0,0,2.42-11.14-24.87-18.77l-1.19-3.52Z"/><path class="cls-29" d="M225.19,370.26h-9.65v8.36s5.85,3.24,13.69,6.63A34.69,34.69,0,0,1,225.19,370.26Z"/><path class="cls-30" d="M215.54,376.05v2.57s21.48,11.91,37.25,13.93a6.16,6.16,0,0,0-.22-2.61C236.82,387.85,215.54,376.05,215.54,376.05Z"/><path class="cls-28" d="M260.62,334l15.76,11.55s-4.31,22.44-11.29,24.74H247.94s-.25-6.75,11.41-10l3.92-16.37-4.42-3.27Z"/><path class="cls-29" d="M262.28,348.06a36,36,0,0,1,10.64,10.25,102.93,102.93,0,0,0,3.46-12.79L260.62,334l-1.77,6.69,4.42,3.27Z"/><path class="cls-30" d="M274.54,344.18c-.61,3-4.78,22.21-11.2,24.33H248.27a5.61,5.61,0,0,0-.33,1.75h17.15c7-2.3,11.29-24.74,11.29-24.74Z"/><path class="cls-11" d="M169.26,184.79s35,13.92,65.62,6.66c0,0-12.29-57.7-4.21-91.61,0,0-30.32-26.32-57.63-9.36C173,90.48,157,104.26,169.26,184.79Z"/><path class="cls-31" d="M213.29,163.93A58.06,58.06,0,0,1,182.44,140c-5.75-6.86-9.53-14-9.74-23.41A35.56,35.56,0,0,1,174,106.37a35.48,35.48,0,0,1,10-20.51,37.43,37.43,0,0,0-11,4.62s-16,13.78-3.78,94.31c0,0,35,13.92,65.62,6.66,0,0-2.31-10.86-4.27-25.92A42.06,42.06,0,0,1,213.29,163.93Z"/><path class="cls-32" d="M136.22,201.63c4.62,3.07.94,2.62,3.5,7.49.55-.34,11.68-4.54,12-5.14,7.13-15,17.26-97.88,17.26-97.88s-1.69-1.91-1.74-3.27c-2.19.19-4.47.26-6.83.26-1.07,0,7.95-13.78,6.91-13.91-.06,1-12.08,1.06-14.08,16.17C145,167.33,147.14,202,136.22,201.63Z"/><path class="cls-33" d="M167.2,102.83c-2.19.19-4.47.26-6.83.26-1.07,0,7.95-13.78,6.91-13.91-.05.77-6.49,1-10.73,7,3.24-2,6.22-2.25,6.25-2.77,1,.13-8,13.91-6.9,13.91,2.36,0,4.63-.07,6.83-.27.05,1.36,1.73,3.27,1.73,3.27s-9.21,75.39-16.24,95.37a17.07,17.07,0,0,0,3.46-1.67c7.13-15,17.26-97.88,17.26-97.88S167.25,104.19,167.2,102.83Z"/><path class="cls-33" d="M137.06,201.57a4.68,4.68,0,0,1-.84.06c.22.15.42.28.6.42Z"/><path class="cls-11" d="M184.24,76.84s-15.93-5-24.93,6.67c-4,5.72-9.14,9.21-11.21,31.18,0,0,6.54,7,20.3,6.92L173.55,110l48.57.64,3.59,15.57,15.71-6.55s6.3-24.69-14.41-31.3C217.63,85.34,184.24,76.84,184.24,76.84Z"/><path class="cls-31" d="M172.7,108.38A95.56,95.56,0,0,1,179,75.89c-5.45-.5-14,.17-19.71,7.62-4,5.72-9.14,9.21-11.21,31.18,0,0,6.54,7,20.3,6.92l4.42-10A31.38,31.38,0,0,1,172.7,108.38Z"/><path class="cls-32" d="M137.61,201.44s-12.3,1-12,8.68c0,0,1.26,10.32,2.62,8.62,0,0,2.07-.71,1.14-8.62,0,0-.23,10.28,3.93,10.31,1.44,0,1-10.39,1-10.39s.73,10.37,4.79,10.39c1.83,0,.5-10.25.5-10.25s11.21.09,12.11-6.2S137.61,201.44,137.61,201.44Z"/><path class="cls-33" d="M149.9,201c-4.25,4.8-13.68,5.64-19,5.64a24.09,24.09,0,0,1-4.08-.39,6,6,0,0,0-1.19,3.92s1.26,10.32,2.62,8.62c0,0,1.3-.47,1.37-4.62.37,2.89,1.31,6.29,3.7,6.31,1.44,0,1-10.39,1-10.39s.73,10.37,4.79,10.39c1.83,0,.5-10.25.5-10.25s11.21.09,12.11-6.2A2.62,2.62,0,0,0,149.9,201Z"/><polygon class="cls-34" points="251.14 126.26 250.1 109.51 285.71 107.31 286.75 124.06 285.72 124.12 284.75 108.4 251.19 110.47 252.16 126.19 251.14 126.26"/><polygon class="cls-21" points="249.99 124.45 287.67 122.13 282.55 151.86 258.73 153.34 249.99 124.45"/><path class="cls-32" d="M185,77s-2.18,16.83,14.81,18.09S213,84.28,213,84.28Z"/><path class="cls-32" d="M183.58,32.21C177.94,51,186.23,70.76,202.46,75c18.58,4.82,33.66-6.51,39.29-25.31S238.93,11.72,222.87,6.9,189.21,13.42,183.58,32.21Z"/><path class="cls-33" d="M190.35,52.69a53.93,53.93,0,0,1,2.45-10.35,46.87,46.87,0,0,1,4.84-9.29,28.37,28.37,0,0,1,11.19-9.14l7.27-2.17a28.18,28.18,0,0,1,27,11C241.48,20.47,234,10.24,222.87,6.9c-16.07-4.81-33.66,6.52-39.29,25.31-4.71,15.7.3,32.07,11.54,39.48A27.24,27.24,0,0,1,190.35,52.69Z"/><path class="cls-33" d="M194.41,71.5l-2.69,13.29,12.86,4.39,2.67-12.69A22,22,0,0,1,194.41,71.5Z"/><path class="cls-32" d="M201.08,79.43a20.73,20.73,0,0,1-8-1.59l-1.41,7,12.86,4.39,2.1-10C204.87,79.37,203,79.43,201.08,79.43Z"/><path class="cls-35" d="M181.83,47.53a66.73,66.73,0,0,0,4.64,11.34c.48.89,1,1.75,1.51,2.6s1.07,1.68,1.65,2.47c.28.41.6.79.9,1.17s.62.76.95,1.12a23.37,23.37,0,0,0,2,2.09l1.06,1,1.13.88a25.89,25.89,0,0,0,2.38,1.52,9.81,9.81,0,0,0,1.25.64c.44.18.84.42,1.29.56l1.32.48,1.36.37a12,12,0,0,0,1.38.29,10.84,10.84,0,0,0,1.39.21,22.59,22.59,0,0,0,2.85.17c1,0,1.93-.07,2.89-.11s1.93-.25,2.91-.37l-.18,0,2.91-.91,1.46-.44a13.49,13.49,0,0,0,1.43-.52L223.14,71c.88-.47,1.78-.91,2.69-1.36a8.7,8.7,0,0,0,1.27-.79l1.26-.83a13,13,0,0,0,1.18-.93c.38-.33.8-.63,1.15-1s.71-.74,1.08-1.1a14.53,14.53,0,0,0,1-1.16l2.07-2.39c-.45,1-.9,1.91-1.41,2.85a12.73,12.73,0,0,1-.79,1.39c-.28.46-.58.91-.88,1.36s-.68.85-1,1.28a14.09,14.09,0,0,1-1.09,1.23l-1.22,1.1a11.69,11.69,0,0,1-1.27,1.06c-.89.61-1.78,1.26-2.71,1.85l-2.89,1.5a15.07,15.07,0,0,1-1.46.71l-1.5.61-3,1.17-.06,0-.12,0c-1.07.19-2.13.44-3.21.58a27.86,27.86,0,0,1-3.3.24c-.55,0-1.1,0-1.66,0l-1.67-.13c-.56,0-1.11-.16-1.66-.24a13,13,0,0,1-1.65-.34l-1.63-.46-1.59-.59a15.26,15.26,0,0,1-1.54-.71,12.61,12.61,0,0,1-1.48-.82,23.78,23.78,0,0,1-2.76-1.91L192,72.13c-.4-.39-.79-.78-1.18-1.18a29.64,29.64,0,0,1-2.1-2.53,13.5,13.5,0,0,1-.93-1.35c-.3-.46-.6-.91-.86-1.38-.55-.93-1-1.89-1.51-2.86s-.84-2-1.22-3-.69-2-1-3-.52-2.05-.72-3.08-.35-2.08-.49-3.11A27.42,27.42,0,0,1,181.83,47.53Z"/><path class="cls-36" d="M197,71.05c-.45-.29-.89-.59-1.33-.89l-1.13-.88-1.06-1a23.37,23.37,0,0,1-2-2.09c-.33-.36-.65-.73-.95-1.12s-.62-.76-.9-1.17c-.58-.79-1.12-1.62-1.65-2.47s-1-1.71-1.51-2.6a66.73,66.73,0,0,1-4.64-11.34,27.42,27.42,0,0,0,.21,3.13c.14,1,.26,2.08.49,3.11s.45,2,.72,3.08.63,2,1,3,.76,2,1.22,3,1,1.93,1.51,2.86c.26.47.56.92.86,1.38a13.5,13.5,0,0,0,.93,1.35,29.64,29.64,0,0,0,2.1,2.53c.39.4.78.79,1.18,1.18l1.26,1.1a23.78,23.78,0,0,0,2.76,1.91,12.61,12.61,0,0,0,1.48.82l.75.37A31,31,0,0,1,197,71.05Z"/><path class="cls-11" d="M248.42,35.49c.23-16-9.13-30.1-24.22-34.29C205.46-4,185,8.13,178.2,28.32c0,0-4,12.61,0,24.19,0,0,8-9.94,12.21-20.51h0l14.67-4.77,22.25,8.32L232.87,46h0c-1.51,5-2.63,12.75,2,18.82C234.88,64.86,250.16,52.51,248.42,35.49Z"/><path class="cls-31" d="M204.11,24.27A28.48,28.48,0,0,1,214.3,5.54,25.43,25.43,0,0,1,222.85.87c-18.36-4.27-38,7.74-44.65,27.45,0,0-4,12.61,0,24.19,0,0,8-9.94,12.21-20.51h0L204,27.59A24.39,24.39,0,0,1,204.11,24.27Z"/><path class="cls-37" d="M180.38,54.69c1.8-2.17,3.45-4.47,5-6.8,3.33-4.88,5.25-10.34,8.18-15.36s15.78-1.49,19.73-.37a39.89,39.89,0,0,1,11.21,5.15c1.38.91,6.36,5.18,5.7,6.83-3.06,7.59-2.64,16.37,2.46,22.9,2.45,3.13,6.78-1.27,4.36-4.37-6-7.68,1.63-15.7-2.39-23.55C230.92,31.81,221.35,28,214,25.92c-7-2-16.42-3.35-22.92.74-3.88,2.44-4.91,7.78-6.94,11.57A73.77,73.77,0,0,1,176,50.33c-2.52,3,1.83,7.43,4.37,4.36Z"/><path class="cls-38" d="M237.06,62.67c-6-7.68,1.63-15.7-2.39-23.55C230.92,31.81,221.35,28,214,25.92a50.1,50.1,0,0,0-9.84-1.82,26.74,26.74,0,0,1,.22,6.11,63.11,63.11,0,0,1,9,1.95,39.89,39.89,0,0,1,11.21,5.15c1.38.91,6.36,5.18,5.7,6.83-3.06,7.59-2.64,16.37,2.46,22.9C235.15,70.17,239.48,65.77,237.06,62.67Z"/><path d="M191.77,42a3.32,3.32,0,0,1,.17-.71,5.72,5.72,0,0,1,.95-1.72,6.22,6.22,0,0,1,1-1l.63-.44c.23-.12.47-.24.72-.35a6.37,6.37,0,0,1,1.64-.42c.29,0,.58,0,.87,0l.86.08h.09l.09,0,.09,0,.19,0,.36.09a6.18,6.18,0,0,1,.87.34,4.63,4.63,0,0,1,1.93,1.79,7.67,7.67,0,0,1,.33.72,4.75,4.75,0,0,1,.27,1.36,5.52,5.52,0,0,1-.22,2,3.47,3.47,0,0,1-.26.68s0-.26-.13-.7c-.05-.22-.11-.48-.19-.77a8.46,8.46,0,0,0-.32-.92,6.26,6.26,0,0,0-.5-1,4.44,4.44,0,0,0-.73-.83,3.89,3.89,0,0,0-1-.56,4.23,4.23,0,0,0-.54-.18l-.37-.08-.19,0-.09,0h0l-.65-.08H197l-.63,0-.6.11a8.73,8.73,0,0,0-1.12.39,9,9,0,0,0-1,.54,10.74,10.74,0,0,0-1.39,1.09C192,41.85,191.77,42,191.77,42Z"/><path d="M214.91,47.37a3.59,3.59,0,0,1,.24-.69,5.66,5.66,0,0,1,1.11-1.63,5.35,5.35,0,0,1,1-.86l.67-.38c.24-.1.49-.2.75-.28a6.63,6.63,0,0,1,1.68-.27c.28,0,.58,0,.87.05l.85.16h.08l.09,0,.09,0,.18.06.35.13a4.89,4.89,0,0,1,.83.41,4.77,4.77,0,0,1,1.33,1.23,6.06,6.06,0,0,1,.43.73,6.59,6.59,0,0,1,.25.75,4.65,4.65,0,0,1,.15,1.39,5.5,5.5,0,0,1-.4,1.92,3.91,3.91,0,0,1-.33.66s0-.27-.06-.71c0-.22-.07-.49-.12-.78a8.26,8.26,0,0,0-.23-1,7,7,0,0,0-.41-1,4.32,4.32,0,0,0-.65-.89,3.84,3.84,0,0,0-.91-.64,3.78,3.78,0,0,0-.52-.24l-.36-.12-.18-.06-.09,0h0l.07,0h-.06l-.64-.14-.63-.07-.63,0-.6,0a10.34,10.34,0,0,0-1.16.28,10.48,10.48,0,0,0-1,.45,11.47,11.47,0,0,0-1.49,1C215.11,47.19,214.91,47.37,214.91,47.37Z"/><path class="cls-9" d="M276,138.7l-1.57.07-.14-3.08h.15a2,2,0,0,0,1.93-2.1l-.89,0a1.12,1.12,0,0,1-.77,1.12l-.67-1.87-1.68.08-.05-1.19h.15a2,2,0,0,0,1.93-2.11l-.89,0a1.13,1.13,0,0,1-.77,1.12l-.67-1.87-6.15.27-.51,1.92a1.13,1.13,0,0,1-.86-1l-.89,0a2,2,0,0,0,2.11,1.93h.14l.06,1.18-1.68.08-.51,1.92a1.13,1.13,0,0,1-.86-1.05l-.89,0a2,2,0,0,0,2.1,1.93h.15l.14,3.07-1.58.07.08,1.78-.59,0,.12,2.66,14.34-.62-.11-2.66-.6,0Zm-2.46.11-1.81.07-.13-3.07,1.81-.08Zm-2.83-3,.14,3.07-2.86.13-.14-3.08Zm.74-6,.37,1-5.5.23.28-1.06ZM266.79,132l4.64-.2.05,1.18-4.64.21Zm6.64,1.79.37,1-9.11.39.28-1.06Zm-8.27,2.3L267,136l.13,3.08-1.81.07Zm-1.4,4,11.39-.49,0,.88-11.39.5Zm12.1,2.14-12.58.55,0-.89,12.57-.55Z"/><path d="M191.78,34.49s3.28-8.35,14.69-3.17l-2.28,2.89S199,32,191.78,34.49Z"/><path d="M229.27,44s.85-8.94-11.67-9.48l.73,3.62S223.92,38.48,229.27,44Z"/><path class="cls-33" d="M212.07,47.25S211.72,52,215.15,52s2.07,5.28-2.12,5.2-5.49-7.06-4.48-9.22S212.41,44.18,212.07,47.25Z"/><path class="cls-21" d="M193.39,53.84s15.1,9.15,26.25,7a14.19,14.19,0,0,1-13.17,4A16.3,16.3,0,0,1,193.39,53.84Z"/><path class="cls-33" d="M199.13,65.13l2,.71c.59.21,1.27.45,2,.69s1.51.48,2.3.65a18.56,18.56,0,0,0,2.33.43l1.08.07,1,0,.82-.12a3.66,3.66,0,0,0,.63-.15l.56-.15-.48.33a2.88,2.88,0,0,1-.59.33c-.24.1-.52.22-.83.32s-.66.16-1,.22-.76.07-1.17.06-.83,0-1.25-.1-.85-.13-1.26-.24a14.46,14.46,0,0,1-2.38-.8,15,15,0,0,1-1.93-1A11.33,11.33,0,0,1,199.13,65.13Z"/><path class="cls-25" d="M260.18,110s1.25,4.14,2.85,5.13c3.56,2.21,10.43-.25,10.11-3.58S260.18,110,260.18,110Z"/><path class="cls-32" d="M278.83,103.85c-.31-.06-1.46-.07-2.58-.11l-.3-.06c-4.8-.55-8.63-.88-11.19,1.06a15.07,15.07,0,0,0-3.79,4.1c7.86-1.11,4.83,5.59,4.83,5.59-1.55,6,3.73,1.8,3.73,1.8,2.46,2.72,4.43-.38,4.43-.38,1,1.57,2.3,1.38,3.19,0,.36.16,0-.17,0,0C280.3,120.81,286.75,105.24,278.83,103.85Z"/></g></g></svg>